PathFileType	4	(X/Y/Z)	C:/Users/beibeiliu/ov580/test_trc/User2\sequence.17_training_dense_left.trc
DataRate	CameraRate	NumFrames	NumMarkers	Units	OrigDataRate	OrigDataStartFrame	OrigNumFrames
120	120	7	19	mm	120	34	66
Frame#	Time	ThumbCMC			ThumbMCP			ThumbIP			ThumbTip			IndexMCP			IndexPIP			IndexTip			MiddleMCP			MiddlePIP			MiddleTip			RingMCP			RingPIP			RingTip			PinkyMCP			PinkyPIP			PinkyTip			BackHand1			BackHand2			BackHand3	
		X0	Y0	Z0	X1	Y1	Z1	X2	Y2	Z2	X3	Y3	Z3	X4	Y4	Z4	X5	Y5	Z5	X6	Y6	Z6	X7	Y7	Z7	X8	Y8	Z8	X9	Y9	Z9	X10	Y10	Z10	X11	Y11	Z11	X12	Y12	Z12	X13	Y13	Z13	X14	Y14	Z14	X15	Y15	Z15	X16	Y16	Z16	X17	Y17	Z17	X18	Y18	Z18	
33	0.275	-123.237	-12.2551	-63.3813	-107.122	-2.2618	-86.3738	-87.5791	4.13537	-115.899	-74.899	12.3402	-126.951	-96.1877	-59.0255	-129.895	-81.1217	-68.5025	-152.783	-62.7889	-79.1746	-173.871	-79.4669	-85.4016	-117.528	-49.5996	-89.9526	-100.078	-60.2979	-71.1763	-67.2964	-78.3951	-102.379	-99.0481	-57.0964	-99.3381	-79.5198	-78.7166	-76.5599	-58.089	-85.0821	-117	-78.4175	-66.2635	-99.1077	-60.4838	-87.4933	-80.4161	-45.4119	-139.418	-81.1434	-80.806	-158.352	-68.2674	-56.6139	-142.375	-45.4714	-78.9365	
34	0.283333	-138.423	-10.2156	-66.4284	-126.384	5.87408	-89.8057	-109.493	13.3039	-116.848	-97.2155	22.6965	-134.502	-96.3579	-48.159	-128.897	-74.7228	-58.1185	-152.38	-57.9623	-65.4716	-167.593	-71.8886	-69.8177	-114.811	-43.7985	-63.6163	-92.3351	-66.4308	-45.3285	-63.9104	-69.4723	-87.3111	-93.636	-49.0952	-70.1495	-74.2079	-79.2667	-56.6552	-56.5191	-77.3393	-99.6017	-72.7495	-58.1755	-75.4144	-55.7127	-86.7715	-61.7416	-47.7336	-133.425	-79.7023	-78.9227	-158.773	-70.7642	-53.4293	-145.771	-47.2701	-79.9315	
35	0.291667	-152.917	-9.63516	-69.958	-142.714	2.61282	-97.9197	-128.275	12.7662	-122.696	-117.942	25.5738	-141.437	-97.5559	-39.6022	-131.425	-74.3188	-41.5429	-153.273	-54.6846	-47.0811	-165.973	-67.8316	-56.0731	-111.33	-45.5571	-36.2512	-91.5511	-71.3641	-23.2284	-64.8087	-62.3128	-67.7718	-90.0274	-49.3747	-44.8268	-70.0106	-81.1167	-38.2679	-57.7831	-62.9569	-79.1137	-71.5453	-56.699	-51.0865	-53.9072	-85.7915	-48.0126	-45.3858	-125.381	-80.3352	-79.0291	-153.952	-76.7231	-55.8948	-148.148	-48.0876	-79.9525	
36	0.3	-164.801	-16.5483	-76.8838	-156.513	-5.08366	-103.65	-146.794	7.4785	-130.379	-144.704	23.0056	-152.212	-100.28	-38.8963	-132.947	-81.7785	-38.3765	-151.127	-58.2088	-39.4845	-168.388	-73.6305	-42.9351	-114.539	-53.2699	-17.6532	-98.9802	-80.2051	-12.3855	-68.1733	-64.5298	-52.2034	-92.0137	-54.0221	-27.4454	-76.3423	-91.8785	-26.521	-63.0224	-62.2937	-59.4063	-73.585	-61.6476	-32.2694	-59.6867	-93.0045	-36.3813	-49.1497	-121.46	-79.0186	-75.4509	-149.057	-79.6457	-57.8919	-150.227	-53.2909	-83.4254	
37	0.308333	-173.363	-26.2583	-82.5795	-170.985	-15.0405	-110.929	-167.022	-2.00941	-137.437	-168.382	10.9584	-159.815	-108.997	-39.5559	-142.6	-92.5179	-37.0001	-162.369	-72.7811	-33.093	-181.57	-83.3314	-37.5882	-120.551	-66.8538	-7.31923	-107.928	-93.9473	-4.75456	-78.9687	-70.2419	-41.4964	-99.3154	-68.4264	-10.5542	-86.0753	-100.571	-20.1218	-67.4161	-68.1738	-51.7647	-79.2117	-67.418	-19.4511	-67.2352	-97.7139	-22.1489	-59.6384	-124.955	-74.7283	-79.3077	-145.846	-83.9774	-56.1684	-156.157	-57.3594	-90.1961	
38	0.316667	-181.068	-35.576	-83.6186	-186.442	-23.3709	-112.362	-185.653	-13.8873	-143.925	-184.406	-2.71038	-162.225	-126.642	-45.0246	-146.208	-111.241	-41.6077	-172.75	-90.0312	-41.7009	-191.241	-98.4011	-36.2195	-134.15	-82.0551	-4.67318	-122.443	-109.569	-4.32186	-90.7705	-81.5094	-36.0255	-113.72	-78.0347	-7.3895	-101.235	-107.28	-13.2287	-79.8439	-74.8926	-43.8357	-91.9128	-74.8327	-13.5086	-81.4428	-106.783	-20.7173	-65.7	-124.542	-76.5434	-81.0096	-148.67	-83.2106	-60.3096	-163.144	-64.9966	-91.5638	
39	0.325	-185.543	-42.4195	-83.9641	-189.26	-33.0755	-109.95	-194.566	-26.4765	-146.981	-199.436	-18.194	-170.95	-135.638	-58.373	-154.326	-125.977	-58.8268	-174.966	-107.278	-59.8712	-201.047	-102.803	-47.2906	-142.447	-92.1923	-13.7426	-135.702	-113.324	-9.1599	-105.178	-91.1052	-44.9759	-124.888	-85.6253	-14.6532	-115.457	-112.449	-17.914	-88.9155	-78.7878	-49.6389	-103.508	-80.4931	-18.0553	-98.0197	-108.481	-22.7077	-79.597	-131.229	-82.5277	-86.4258	-147.495	-87.4623	-58.5136	-169.397	-71.2803	-89.3991	
